<?xml version="1.0" standalone="no"?>
<!DOCTYPE svg PUBLIC "-//W3C//DTD SVG 20010904//EN"
 "http://www.w3.org/TR/2001/REC-SVG-20010904/DTD/svg10.dtd">
<svg version="1.0" xmlns="http://www.w3.org/2000/svg"
 width="102.000000pt" height="102.000000pt" viewBox="0 0 102.000000 102.000000"
 preserveAspectRatio="xMidYMid meet">
<metadata>
Created by potrace 1.14, written by Peter Selinger 2001-2017
</metadata>
<g transform="translate(0.000000,102.000000) scale(0.100000,-0.100000)"
fill="#000000" stroke="none">
<path d="M227 936 c-106 -44 -167 -108 -208 -215 -17 -45 -20 -72 -17 -141 3
-73 9 -94 38 -148 62 -117 163 -182 292 -190 92 -5 155 9 221 49 l47 29 178
-135 c98 -74 185 -135 193 -135 21 0 49 32 49 56 0 13 -53 60 -171 149 -93 71
-172 132 -174 135 -2 4 8 35 22 71 34 84 35 188 3 272 -27 72 -112 162 -185
197 -77 36 -210 39 -288 6z m271 -67 c222 -110 222 -424 1 -537 -56 -29 -76
-34 -137 -34 -117 0 -219 62 -275 165 -18 35 -22 58 -22 137 0 109 11 138 79
208 67 71 114 90 222 91 60 1 80 -4 132 -30z"/>
<path d="M258 782 l-128 -85 0 -119 c0 -88 3 -118 13 -118 7 0 36 16 65 35 31
21 52 30 52 23 0 -7 -9 -19 -20 -26 -18 -11 -29 -52 -14 -52 3 0 32 18 65 40
39 27 59 48 59 61 0 17 -3 18 -20 9 -15 -8 -20 -8 -20 2 0 7 20 26 45 41 l45
29 0 118 c0 65 -3 121 -7 123 -5 3 -65 -34 -135 -81z m122 -47 l0 -95 -105
-70 c-58 -39 -110 -68 -115 -65 -6 3 -10 45 -10 93 l1 87 112 72 c62 40 113
73 115 73 1 0 2 -43 2 -95z"/>
<path d="M227 706 c-45 -32 -55 -42 -42 -48 8 -4 115 66 115 75 0 15 -26 5
-73 -27z"/>
<path d="M268 614 c-43 -30 -78 -59 -78 -65 0 -6 13 -3 29 8 126 82 151 99
151 106 0 17 -30 3 -102 -49z"/>
<path d="M218 637 c-36 -21 -48 -37 -29 -37 16 0 81 41 81 51 0 13 -11 10 -52
-14z"/>
<path d="M323 482 c-57 -37 -103 -69 -103 -72 0 -3 25 -14 55 -24 l55 -19 107
71 c67 45 102 73 93 76 -38 14 -103 36 -104 35 0 0 -47 -30 -103 -67z"/>
</g>
</svg>
